<svg id="_x33_0" enable-background="new 0 0 64 64" height="512" viewBox="0 0 64 64" width="512" xmlns="http://www.w3.org/2000/svg"><g><path d="m4 11c1.1 0 2.167-.214 3.154-.623l-1.102 3.306 1.896.633 1.322-3.965 1.927 16.385 8.319-5.546 2.922 11.689 9.562-8.825 9.561 8.825 2.922-11.688 8.32 5.546 1.927-16.385 1.322 3.965 1.896-.633-1.102-3.306c.987.408 2.054.622 3.154.622 1.654 0 3-1.346 3-3v-4c0-1.654-1.346-3-3-3-2.002 0-3.891.716-5.431 2.058-.184-.036-.374-.058-.569-.058-.194 0-.382.022-.566.057-1.505-1.325-3.411-2.057-5.434-2.057-1.654 0-3 1.346-3 3v4c0 1.654 1.346 3 3 3 .587 0 1.162-.065 1.723-.184-4.396 5.166-10.84 8.184-17.723 8.184s-13.327-3.018-17.723-8.184c.561.119 1.136.184 1.723.184 1.654 0 3-1.346 3-3v-4c0-1.654-1.346-3-3-3-2.002 0-3.891.716-5.431 2.058-.184-.036-.374-.058-.569-.058-.194 0-.382.022-.566.057-1.505-1.325-3.411-2.057-5.434-2.057-1.654 0-3 1.346-3 3v4c0 1.654 1.346 3 3 3zm19.562 18.121-2.676-10.699c2.352 1.151 4.885 1.937 7.519 2.313l2.12 1.957zm37.438-25.121v4c0 .551-.448 1-1 1-1.324 0-2.582-.416-3.636-1.175.393-.507.636-1.135.636-1.825s-.243-1.318-.636-1.825c1.054-.759 2.312-1.175 3.636-1.175.552 0 1 .449 1 1zm-6 2c0 .551-.448 1-1 1s-1-.449-1-1 .448-1 1-1 1 .449 1 1zm-8 2v-4c0-.551.448-1 1-1 1.311 0 2.558.407 3.632 1.179-.39.507-.632 1.133-.632 1.821 0 .69.243 1.318.636 1.825-1.054.759-2.312 1.175-3.636 1.175-.552 0-1-.449-1-1zm5.738 2.166-1.541 13.097-7.612-5.075c3.609-1.859 6.761-4.588 9.153-8.022zm-11.29 9.001 1.269.846-2.278 9.108-8.81-8.133c.124.002.247.012.371.012 3.292 0 6.489-.642 9.448-1.833zm-22.956-2.077.51 2.04-6.199 4.133-1.541-13.097c1.957 2.809 4.421 5.148 7.23 6.924zm-1.492-13.09v4c0 .551-.448 1-1 1-1.324 0-2.582-.416-3.636-1.175.393-.507.636-1.135.636-1.825s-.243-1.318-.636-1.825c1.054-.759 2.312-1.175 3.636-1.175.552 0 1 .449 1 1zm-6 2c0 .551-.448 1-1 1s-1-.449-1-1 .448-1 1-1 1 .449 1 1zm-8-2c0-.551.448-1 1-1 1.311 0 2.558.407 3.632 1.179-.39.507-.632 1.133-.632 1.821 0 .69.243 1.318.636 1.825-1.054.759-2.312 1.175-3.636 1.175-.552 0-1-.449-1-1z"/><path d="m50.723 36.84 12.441 4.665-2.528-24.013-1.53 3.062c-4.23 8.462-12.369 14.137-21.772 15.182l-1.499.167c-.482-1.672-2.012-2.903-3.835-2.903s-3.353 1.231-3.834 2.901l-1.499-.167c-9.403-1.045-17.542-6.72-21.772-15.182l-1.53-3.062-2.529 24.014 12.441-4.665.807 16.938 13.407-8.619c-.316.738-.491 1.529-.491 2.342 0 1.18.346 2.322 1 3.303l.059.088c.616.923.941 1.998.941 3.109s-.325 2.186-.941 3.109l-.891 1.336 1.664 1.109.891-1.336c.836-1.252 1.277-2.711 1.277-4.218s-.441-2.966-1.277-4.219l-.059-.088c-.435-.651-.664-1.409-.664-2.193 0-.537.116-1.06.323-1.547.711.645 1.645 1.047 2.677 1.047s1.966-.402 2.677-1.047c.208.487.323 1.01.323 1.547 0 .784-.229 1.542-.664 2.193l-.54.811c-.521.781-.796 1.689-.796 2.627 0 1.483.709 2.9 1.895 3.79l.505.379c1.001.752 1.6 1.948 1.6 3.2v2.5h2v-2.5c0-1.878-.897-3.672-2.399-4.8l-.506-.379c-.686-.514-1.095-1.332-1.095-2.19 0-.542.159-1.067.46-1.518l.54-.81c.654-.98 1-2.123 1-3.303 0-.813-.175-1.604-.491-2.341l13.407 8.619zm8.608-12.638 1.505 14.293-10.013-3.755.091-1.92c3.33-2.244 6.205-5.157 8.417-8.618zm-24.331 17.798h-.78c.48-.532.78-1.229.78-2s-.301-1.468-.78-2h.78c1.103 0 2 .897 2 2s-.897 2-2 2zm-3-7c1.103 0 2 .897 2 2v.78c-.532-.48-1.229-.78-2-.78s-1.468.301-2 .78v-.78c0-1.103.897-2 2-2zm1 5c0 .551-.448 1-1 1s-1-.449-1-1 .448-1 1-1 1 .449 1 1zm-3.22 2h-.78c-1.103 0-2-.897-2-2s.897-2 2-2h.78c-.48.532-.78 1.229-.78 2s.301 1.468.78 2zm-26.616-3.504 1.505-14.293c2.212 3.461 5.087 6.374 8.416 8.618l.091 1.92zm11.984-4.4c3.24 1.817 6.84 3.028 10.643 3.535-.491.665-.791 1.48-.791 2.369 0 1.358.687 2.551 1.724 3.274l-10.808 6.948zm16.852 10.904c-1.103 0-2-.897-2-2v-.78c.532.48 1.229.78 2 .78s1.468-.301 2-.78v.78c0 1.103-.897 2-2 2zm5.276-1.726c1.037-.723 1.724-1.916 1.724-3.274 0-.889-.3-1.704-.792-2.369 3.804-.507 7.403-1.718 10.643-3.535l-.768 16.126z"/><path d="m9.158 52.313-1.157-3.478-.949 2.849c-.528 1.582-1.787 2.841-3.368 3.368l-2.845.948 3.473 1.159c1.188.396 2.135 1.342 2.53 2.529l1.158 3.481 1.157-3.481c.396-1.188 1.343-2.134 2.531-2.53l3.472-1.158-3.472-1.158c-1.188-.396-2.134-1.342-2.53-2.529zm-1.158 5.257c-.449-.655-1.025-1.218-1.691-1.651.616-.45 1.16-.994 1.61-1.61.434.666.996 1.242 1.651 1.691-.615.421-1.148.955-1.57 1.57z"/><path d="m55 51h2v4h-2z"/><path d="m57 55h4v2h-4z"/><path d="m55 57h2v4h-2z"/><path d="m51 55h4v2h-4z"/><path d="m39 15c1.654 0 3-1.346 3-3s-1.346-3-3-3-3 1.346-3 3 1.346 3 3 3zm0-4c.552 0 1 .449 1 1s-.448 1-1 1-1-.449-1-1 .448-1 1-1z"/><path d="m24 51c-1.654 0-3 1.346-3 3s1.346 3 3 3 3-1.346 3-3-1.346-3-3-3zm0 4c-.552 0-1-.449-1-1s.448-1 1-1 1 .449 1 1-.448 1-1 1z"/><path d="m25 9h2v-2h2v-2h-2v-2h-2v2h-2v2h2z"/></g></svg>