<?xml version="1.0" encoding="iso-8859-1"?>
<!-- Generator: Adobe Illustrator 19.0.0, SVG Export Plug-In . SVG Version: 6.00 Build 0)  -->
<svg version="1.1" id="Layer_1" xmlns="http://www.w3.org/2000/svg" xmlns:xlink="http://www.w3.org/1999/xlink" x="0px" y="0px"
	 viewBox="0 0 512 512" style="enable-background:new 0 0 512 512;" xml:space="preserve">
<g>
	<g>
		<path d="M281.329,75.969c-8.432,0.288-16.876,0.435-25.332,0.435c-10.754,0-21.488-0.244-32.203-0.706
			c-1.74-0.075-3.41,0.688-4.487,2.058L81.048,253.754c-0.75,0.954-1.157,2.133-1.157,3.347v74.038c0,5.144,6.498,7.391,9.675,3.346
			L285.777,84.72C288.623,81.096,285.934,75.813,281.329,75.969z"/>
	</g>
</g>
<g>
	<g>
		<path d="M511.31,47.912c-2.477-7.927-10.918-12.345-18.843-9.867l-0.264,0.085c-25.087,8.349-50.519,15.336-76.211,20.967
			c-1.462,0.104-2.863,0.417-4.18,0.909c-25.05,5.34-50.346,9.379-75.816,12.115c-1.449,0.155-2.774,0.886-3.674,2.032
			L82.712,391.897c-0.403,0.513-0.835,0.989-1.29,1.431c-1.011,0.982-1.531,2.362-1.531,3.771v56.733
			c0,6.644,3.013,13.035,8.399,16.924c3.602,2.601,7.792,3.889,11.971,3.888c3.904,0,7.796-1.124,11.183-3.35l145.252-95.435
			l143.793,95.34c6.263,4.152,14.267,4.524,20.889,0.97c6.621-3.554,10.734-10.431,10.734-17.946V86.294
			c23.414-5.446,46.611-11.979,69.53-19.605C509.447,64.135,513.768,55.775,511.31,47.912z"/>
	</g>
</g>
<g>
	<g>
		<path d="M175.053,72.013c-25.148-2.732-50.126-6.731-74.863-12.004c-1.317-0.492-2.718-0.806-4.181-0.91
			C70.429,53.493,45.107,46.542,20.125,38.24c-7.65-2.542-16.184,1.188-19.097,8.703c-3.129,8.072,1.15,17.023,9.266,19.724
			c22.943,7.636,46.161,14.176,69.598,19.628V190.88c0,5.142,6.498,7.389,9.675,3.345l89.156-113.49
			C181.347,77.393,179.277,72.471,175.053,72.013z"/>
	</g>
</g>
<g>
</g>
<g>
</g>
<g>
</g>
<g>
</g>
<g>
</g>
<g>
</g>
<g>
</g>
<g>
</g>
<g>
</g>
<g>
</g>
<g>
</g>
<g>
</g>
<g>
</g>
<g>
</g>
<g>
</g>
</svg>
