<?xml version="1.0" encoding="iso-8859-1"?>
<!-- Generator: Adobe Illustrator 19.0.0, SVG Export Plug-In . SVG Version: 6.00 Build 0)  -->
<svg version="1.1" id="Layer_1" xmlns="http://www.w3.org/2000/svg" xmlns:xlink="http://www.w3.org/1999/xlink" x="0px" y="0px"
	 viewBox="0 0 511.999 511.999" style="enable-background:new 0 0 511.999 511.999;" xml:space="preserve">
<g>
	<g>
		<path d="M406.43,265.914l-47.771-76.958c-0.283-0.529-0.603-1.033-0.945-1.522l-65.331-105.25l56.212,20.898
			c1.725,0.642,3.492,0.945,5.231,0.945c6.095,0,11.829-3.739,14.078-9.788c2.89-7.774-1.068-16.419-8.843-19.309l-55.616-20.677
			l75.143-24.922c7.872-2.611,12.137-11.109,9.526-18.981c-2.61-7.872-11.108-12.136-18.981-9.526L258.125,37.641L146.945,0.767
			c-7.87-2.61-16.371,1.654-18.981,9.526c-2.61,7.872,1.654,16.371,9.526,18.981l76.988,25.534l-57.806,21.491
			c-7.774,2.89-11.734,11.534-8.843,19.31c2.249,6.049,7.981,9.788,14.078,9.788c1.738,0,3.506-0.304,5.231-0.945l50.666-18.837
			L105.887,265.914c-1.313,2.113-2.024,4.427-2.205,6.748c-0.836,3.708-0.277,7.734,1.886,11.219L242.763,504.9
			c2.843,4.581,7.751,7.099,12.773,7.099c0.101,0,0.203-0.008,0.304-0.01c0.101,0.002,0.203,0.01,0.304,0.01
			c5.022,0,9.93-2.519,12.773-7.099l137.196-221.019c1.313-2.114,2.024-4.427,2.205-6.748
			C409.152,273.424,408.594,269.399,406.43,265.914z M153.205,303.673L153.205,303.673l-17.703-28.519l17.703-28.519V303.673z
			 M330.403,348.899l-74.562,120.12L183.17,351.947c0.042-0.456,0.07-0.915,0.07-1.382V198.248l72.919-117.473l74.243,119.605
			V348.899z M360.437,300.514v-51.746l16.061,25.873L360.437,300.514z"/>
	</g>
</g>
<g>
	<g>
		<path d="M319.539,256.136c-2.14-6.586-7.727-11.295-14.58-12.291l-22.027-3.201l-9.852-19.96
			c-3.065-6.209-9.27-10.067-16.194-10.068c-0.001,0-0.001,0-0.001,0c-6.925,0-13.131,3.857-16.197,10.068l-9.85,19.96
			l-22.028,3.201c-6.853,0.996-12.44,5.706-14.58,12.291c-2.14,6.587-0.388,13.681,4.57,18.515l15.939,15.537l-3.762,21.94
			c-1.17,6.825,1.583,13.594,7.185,17.665c5.603,4.069,12.89,4.595,19.02,1.375l19.702-10.358l19.702,10.358
			c2.666,1.402,5.55,2.094,8.422,2.094c3.728,0,7.433-1.168,10.598-3.468c5.603-4.07,8.356-10.839,7.185-17.666l-3.762-21.939
			l15.94-15.538C319.928,269.815,321.679,262.721,319.539,256.136z M273.561,273.07c-4.259,4.15-6.202,10.126-5.198,15.99
			l0.726,4.23l-3.796-1.996c-5.266-2.77-11.552-2.768-16.811-0.001l-3.798,1.997l0.726-4.232c1.004-5.86-0.938-11.835-5.194-15.984
			l-3.074-2.995l4.249-0.618c5.883-0.856,10.967-4.549,13.597-9.88l1.899-3.848l1.896,3.841c2.629,5.334,7.713,9.03,13.602,9.886
			l4.247,0.617L273.561,273.07z"/>
	</g>
</g>
<g>
</g>
<g>
</g>
<g>
</g>
<g>
</g>
<g>
</g>
<g>
</g>
<g>
</g>
<g>
</g>
<g>
</g>
<g>
</g>
<g>
</g>
<g>
</g>
<g>
</g>
<g>
</g>
<g>
</g>
</svg>
