<?xml version="1.0" encoding="iso-8859-1"?>
<!-- Generator: Adobe Illustrator 19.0.0, SVG Export Plug-In . SVG Version: 6.00 Build 0)  -->
<svg version="1.1" id="Layer_1" xmlns="http://www.w3.org/2000/svg" xmlns:xlink="http://www.w3.org/1999/xlink" x="0px" y="0px"
	 viewBox="0 0 512 512" style="enable-background:new 0 0 512 512;" xml:space="preserve">
<g>
	<g>
		<path d="M511.225,47.647c-2.625-7.878-11.144-12.14-19.021-9.515c-25.087,8.349-50.518,15.336-76.21,20.967
			c-1.463,0.104-2.864,0.417-4.182,0.91c-51.12,10.896-103.264,16.397-155.815,16.397c-21.141,0-42.216-0.899-63.185-2.673
			c-0.076-0.006-0.151-0.014-0.227-0.019c-31.075-2.638-61.916-7.208-92.393-13.704c-1.318-0.493-2.721-0.807-4.185-0.911
			C70.313,53.467,44.88,46.479,19.791,38.13c-7.883-2.625-16.395,1.64-19.018,9.52c-2.623,7.88,1.64,16.395,9.52,19.018
			c22.943,7.636,46.161,14.176,69.598,19.627v367.977c0,7.497,4.099,14.366,10.696,17.925c3.032,1.635,6.355,2.446,9.673,2.446
			c3.903,0,7.795-1.124,11.183-3.35l145.252-95.436l143.792,95.339c6.263,4.155,14.269,4.527,20.889,0.971
			c6.622-3.554,10.736-10.431,10.736-17.946V86.295c23.438-5.451,46.659-11.993,69.604-19.628
			C509.594,64.039,513.849,55.527,511.225,47.647z M109.969,92.667c17.536,3.353,35.179,6.103,52.909,8.237l-52.909,67.351V92.667z
			 M109.968,216.943l88.45-112.593c19.122,1.415,38.323,2.133,57.579,2.133c0.006,0-0.001,0,0.005,0
			c4.259,0,8.515-0.044,12.768-0.113L109.968,308.516V216.943z M402.034,436.136l-134.061-88.887
			c-6.807-4.512-15.615-4.529-22.438-0.045l-135.567,89.073v-79.074l198.342-252.481c31.493-2.115,62.776-6.139,93.724-12.056
			V436.136z"/>
	</g>
</g>
<g>
</g>
<g>
</g>
<g>
</g>
<g>
</g>
<g>
</g>
<g>
</g>
<g>
</g>
<g>
</g>
<g>
</g>
<g>
</g>
<g>
</g>
<g>
</g>
<g>
</g>
<g>
</g>
<g>
</g>
</svg>
