<svg id="Capa_1" enable-background="new 0 0 472 472" height="512" viewBox="0 0 472 472" width="512" xmlns="http://www.w3.org/2000/svg"><path d="m226.252.268c-38.426 2.606-74.534 19.32-101.385 46.932-41.421 42.099-55.301 104.087-35.789 159.83 8.279 23.684 22.125 45.032 40.374 62.25 21.557 20.732 31.809 50.577 27.543 80.179l-1.611 12.347c-.537 2.339-.026 4.796 1.4 6.727 1.58 2.197 4.064 3.568 6.765 3.735v63.332c.02 20.095 16.305 36.38 36.4 36.4h72.134c20.094-.021 36.379-16.306 36.4-36.4v-63.509c4.629-.96 7.913-5.089 7.807-9.815 0-.056 0-.113-.007-.17l-1.107-21.048v-.031c-1.589-27.561 8.43-53.708 27.478-71.725 2.184-2.056 4.331-4.2 6.381-6.362 59.124-62.568 56.351-161.214-6.195-220.362-31.547-29.786-72.937-44.807-116.588-42.31zm70.228 372.032v35.943h-120.935v-35.943zm-24.397 87.7h-72.142c-13.47-.013-24.387-10.93-24.4-24.4v-15.358h120.939v15.358c-.013 13.469-10.928 24.385-24.397 24.4zm62.513-408.7c57.742 54.551 60.329 145.582 5.778 203.324-.02.021-.04.042-.059.063-1.892 2-3.874 3.975-5.9 5.882-21.632 20.465-33.012 50.031-31.225 81.131l.979 18.605h-60.106c6.789-24.665 9.329-50.306 7.51-75.823-.915-12.48-3.064-24.839-6.417-36.895 1.252-6.207 3.204-12.253 5.821-18.019 7.038 6.28 15.613 10.586 24.854 12.481 3.434.712 6.931 1.074 10.438 1.079 13.754.154 26.823-5.993 35.476-16.685 2.92-3.718 5.336-7.805 7.183-12.157 1.19-2.664 2.251-5.382 3.277-8.01 1.373-3.516 2.67-6.837 4.228-9.98 5.947-11.824 15.739-21.275 27.766-26.8 3.019-1.366 4.36-4.92 2.994-7.939-.54-1.193-1.455-2.177-2.606-2.802-18.021-9.737-37.868-15.623-58.284-17.282-22.593-1.8-41.234 2.929-53.919 13.67-14.776 12.763-20.922 32.871-15.806 51.714 1.29 4.531 3.263 8.839 5.852 12.776-1.541 3.006-2.843 5.9-3.933 8.6-6.679-16.254-15.91-31.337-27.345-44.679 5.605-12.398 4.516-26.796-2.89-38.21-7.174-10.8-20.045-18.377-37.223-21.9-15.383-3.131-31.249-3.031-46.592.293-3.237.707-5.288 3.905-4.581 7.142.28 1.279.97 2.432 1.966 3.283 7.321 6.325 12.274 14.951 14.046 24.462.459 2.549.7 5.2.954 8.016.194 2.142.4 4.357.7 6.577.444 3.677 1.372 7.278 2.761 10.711 5.3 12.574 17 20.757 31.308 21.892 1.11.088 2.217.132 3.32.131 10.964.058 21.491-4.293 29.215-12.075 5.611 6.851 10.625 14.169 14.987 21.875 5.912 10.508 10.596 21.66 13.96 33.238.071.423.187.837.347 1.235 3.198 11.342 5.256 22.976 6.142 34.727 1.812 25.395-.908 50.911-8.034 75.353h-63.855l1.2-9.23c4.786-33.43-6.82-67.12-31.18-90.51-30.375-28.59-46.863-68.945-45.2-110.626 1.407-35.453 16.009-69.101 40.943-94.344 54.473-56.475 144.317-58.393 201.15-4.294zm-86.469 152.3c-3.761-14.318.889-29.531 12.011-39.3 10.455-8.854 24.782-11.2 37.025-11.2 2.868 0 5.624.128 8.187.332 15.008 1.219 29.708 4.925 43.5 10.966-9.871 6.719-17.848 15.865-23.163 26.558-1.793 3.618-3.248 7.344-4.655 10.948-1.02 2.612-1.982 5.078-3.056 7.48-1.427 3.396-3.294 6.59-5.553 9.5-8.128 10.04-20.582 14.2-34.17 11.4-8.165-1.661-15.635-5.756-21.426-11.746.139-.225.275-.449.418-.675 13.55-21.376 34.411-35.17 62-41 3.242-.685 5.316-3.869 4.631-7.111s-3.869-5.316-7.111-4.631c-35.56 7.513-55.908 26.489-67.161 42.578-.581-1.333-1.074-2.702-1.477-4.099zm-88.408-62.366c-2.862-1.67-6.536-.702-8.206 2.16s-.702 6.536 2.16 8.206c15.675 8.997 29.988 20.183 42.505 33.22-6.057 6.501-14.778 9.836-23.627 9.036-9.9-.785-17.622-6.1-21.2-14.587-.979-2.471-1.629-5.06-1.935-7.7-.269-1.936-.448-3.914-.638-6.008-.267-2.946-.543-5.993-1.1-9.062-1.496-8.256-4.892-16.051-9.92-22.769 10.301-1.091 20.709-.594 30.859 1.473 9.768 2.006 22.838 6.546 29.64 16.787 4.083 6.393 5.405 14.167 3.665 21.55-12.599-12.563-26.787-23.424-42.203-32.306z"/></svg>