<svg id="Layer_1" height="512" viewBox="0 0 512 512" width="512" xmlns="http://www.w3.org/2000/svg" data-name="Layer 1"><path d="m322.48 386.3h-138.43c-1.66 0-3.32-1.66-2.77-3.32l1.66-12.74c4.43-31.58-6.65-63.7-29.36-85.31a150.037 150.037 0 0 1 -47.08-115.21c2.77-75.89 64.26-138.48 140.14-143.46 86.97-4.99 158.98 63.7 158.98 149.55a149.605 149.605 0 0 1 -40.95 103.01q-2.97 3.135-6.14 6.11c-20.49 19.39-31.01 47.64-29.35 76.44l1.11 21.05a3.8 3.8 0 0 1 -3.7 3.88z" fill="#f8ec7d"/><path d="m269.44 239.24a41.1 41.1 0 0 1 -7.09-14.01 45.033 45.033 0 0 1 13.91-45.51c13.33-11.29 32.15-13.65 49.56-12.27a141.157 141.157 0 0 1 55.9 16.58 63.968 63.968 0 0 0 -30.67 29.6c-2.91 5.87-4.94 12.23-7.6 18.2a47.859 47.859 0 0 1 -6.37 10.83c-17.97 22.21-51.76 17.06-67.64-3.42z" fill="#3bb54a"/><path d="m322.48 434.24v21.36a30.4 30.4 0 0 1 -30.4 30.4h-72.14a30.4 30.4 0 0 1 -30.4-30.4v-21.36z" fill="#cc7350"/><path d="m189.54 386.3h132.94v47.94h-132.94z" fill="#e48e66"/><path d="m223.95 204.38c-.05.09-.1.18-.16.27-13.02 20.92-47.91 20.83-57.97-3.05a36.567 36.567 0 0 1 -2.35-9.21c-.68-4.9-.81-9.96-1.69-14.83a48.437 48.437 0 0 0 -16.06-27.97 106.782 106.782 0 0 1 44.11-.27c12.94 2.66 26.12 8.33 33.43 19.34a34.063 34.063 0 0 1 .69 35.72z" fill="#87e680"/><path d="m246.247 20.272a156.14 156.14 0 0 0 -101.382 46.928 154.906 154.906 0 0 0 -35.79 159.833 156.712 156.712 0 0 0 40.369 62.24 92.906 92.906 0 0 1 27.546 80.189l-1.609 12.35a8.224 8.224 0 0 0 1.4 6.727 9.016 9.016 0 0 0 6.755 3.727v63.334a36.441 36.441 0 0 0 36.4 36.4h72.14a36.441 36.441 0 0 0 36.4-36.4v-63.506a9.786 9.786 0 0 0 7.808-9.817c0-.057 0-.115-.006-.173l-1.112-21.08c-1.588-27.556 8.429-53.7 27.465-71.718 2.183-2.048 4.333-4.188 6.393-6.363a155.909 155.909 0 0 0 -6.195-220.364c-31.54-29.786-72.929-44.803-116.582-42.307zm21.878 203.328a39.089 39.089 0 0 1 12.013-39.3c10.454-8.855 24.792-11.2 37.04-11.2 2.86 0 5.608.128 8.164.33a135.933 135.933 0 0 1 43.5 10.972 69.6 69.6 0 0 0 -23.166 26.562c-1.8 3.63-3.258 7.369-4.669 10.984-1.014 2.6-1.971 5.049-3.036 7.44a41.8 41.8 0 0 1 -5.553 9.5 32.939 32.939 0 0 1 -26.169 12.233h-.4a41.66 41.66 0 0 1 -29.049-12.546c9.809-15.752 28.312-34.495 62.436-41.7a6 6 0 0 0 -2.48-11.742c-35.036 7.4-55.466 25.839-67.173 42.6a34.11 34.11 0 0 1 -1.458-4.133zm48.355 168.7v35.94h-120.94v-35.94zm-24.4 87.7h-72.14a24.428 24.428 0 0 1 -24.4-24.4v-15.36h120.94v15.36a24.428 24.428 0 0 1 -24.4 24.4zm62.514-408.7a143.831 143.831 0 0 1 5.72 203.39c-1.9 2-3.877 3.973-5.908 5.878-21.631 20.471-33.009 50.047-31.218 81.116l.982 18.613h-60.1c5.029-17.774 14.889-63.474 1.081-112.736a83.405 83.405 0 0 1 5.813-17.984 54.05 54.05 0 0 0 34.762 13.536h.53a44.7 44.7 0 0 0 35.483-16.679 53.217 53.217 0 0 0 7.191-12.167c1.18-2.647 2.234-5.348 3.253-7.959 1.377-3.529 2.677-6.861 4.241-10.017a58.338 58.338 0 0 1 27.768-26.8 6 6 0 0 0 .389-10.741 147.816 147.816 0 0 0 -58.288-17.287c-22.594-1.794-41.236 2.936-53.912 13.672a50.757 50.757 0 0 0 -15.807 51.715 46.632 46.632 0 0 0 5.832 12.816c-1.53 2.989-2.823 5.864-3.908 8.557a167.271 167.271 0 0 0 -27.346-44.706 40.026 40.026 0 0 0 -2.895-38.181c-7.165-10.794-20.036-18.367-37.221-21.9a113.283 113.283 0 0 0 -46.6.286 6 6 0 0 0 -2.616 10.425 42.683 42.683 0 0 1 14.051 24.474c.46 2.543.7 5.2.952 8.011.193 2.142.392 4.357.7 6.577a42.075 42.075 0 0 0 2.764 10.712c5.3 12.57 17 20.752 31.311 21.885q1.662.132 3.315.131a40.86 40.86 0 0 0 29.224-12.081 155.72 155.72 0 0 1 29 55.34 5.9 5.9 0 0 0 .249.861c14.174 49.709 2.135 97-1.858 110.234h-63.848l1.2-9.226a104.917 104.917 0 0 0 -31.189-90.512 144.039 144.039 0 0 1 -45.2-110.623c2.649-72.423 61.744-132.905 134.493-137.68a143.239 143.239 0 0 1 107.61 39.05zm-174.881 89.937a6 6 0 1 0 -6.046 10.366 190.631 190.631 0 0 1 42.514 33.2 28.766 28.766 0 0 1 -23.632 9.044c-9.9-.783-17.626-6.1-21.2-14.576a30.583 30.583 0 0 1 -1.938-7.714c-.268-1.932-.446-3.908-.634-6-.266-2.95-.54-6-1.095-9.069a54.156 54.156 0 0 0 -9.924-22.774 101.3 101.3 0 0 1 30.862 1.478c9.773 2.009 22.847 6.551 29.639 16.782a28.125 28.125 0 0 1 3.668 21.526 204.832 204.832 0 0 0 -42.214-32.263z" fill="#63316d"/></svg>