<svg id="Layer_3" enable-background="new 0 0 64 64" height="512" viewBox="0 0 64 64" width="512" xmlns="http://www.w3.org/2000/svg"><g><path d="m63 26c0-3.871-2.522-7.309-6.125-8.526.083-.492.125-.984.125-1.474 0-4.962-4.037-9-9-9-.332 0-.666.027-1 .065v-.66c0-2.98-2.425-5.405-5.405-5.405-1.262 0-2.49.445-3.461 1.253l-3.935 3.279c-.666-.33-1.406-.532-2.199-.532s-1.533.202-2.199.532l-3.936-3.28c-.969-.807-2.198-1.252-3.46-1.252-2.98 0-5.405 2.425-5.405 5.405v.66c-.334-.038-.668-.065-1-.065-4.963 0-9 4.038-9 9 0 .49.042.982.125 1.474-3.603 1.217-6.125 4.655-6.125 8.526 0 2.222.828 4.356 2.303 6-1.475 1.644-2.303 3.778-2.303 6 0 3.871 2.522 7.309 6.125 8.526-.083.492-.125.984-.125 1.474 0 4.962 4.037 9 9 9 .489 0 .982-.042 1.474-.125.536 1.585 1.502 2.961 2.746 4.005l.023.09.07-.018c1.568 1.284 3.561 2.048 5.687 2.048 2.222 0 4.356-.829 6-2.302 1.644 1.473 3.778 2.302 6 2.302 3.87 0 7.309-2.522 8.526-6.125.492.083.985.125 1.474.125 4.963 0 9-4.038 9-9 0-.49-.042-.982-.125-1.474 3.603-1.217 6.125-4.655 6.125-8.526 0-2.222-.828-4.356-2.303-6 1.475-1.644 2.303-3.778 2.303-6zm-16-12.405v-4.513c.335-.05.669-.082 1-.082 3.859 0 7 3.14 7 7 0 .633-.092 1.275-.271 1.909-.075.266-.038.551.104.789.143.237.377.404.646.462 3.2.689 5.521 3.565 5.521 6.84 0 2.004-.868 3.917-2.382 5.25-.215.19-.339.463-.339.75s.124.561.339.75c.387.341.73.72 1.029 1.128-3.462 3.171-7.871 4.962-12.575 5.094-.047-.324-.072-.649-.072-.972 0-2.004.868-3.917 2.382-5.25.215-.19.339-.463.339-.75s-.124-.561-.339-.75c-1.514-1.333-2.382-3.246-2.382-5.25 0-.633.092-1.275.271-1.909.075-.266.038-.551-.104-.789-.143-.237-.377-.404-.646-.462-2.125-.457-3.903-1.916-4.826-3.845 2.934-.054 5.305-2.453 5.305-5.4zm-1.875 25.878c-2.658.896-4.757 2.994-5.652 5.652-2.722-.46-5.467.379-7.473 2.177-2.005-1.798-4.749-2.635-7.473-2.177-.896-2.658-2.994-4.756-5.652-5.652.083-.491.125-.983.125-1.473 0-2.222-.828-4.356-2.303-6 1.475-1.644 2.303-3.778 2.303-6 0-.49-.042-.983-.125-1.474 1.928-.654 3.564-1.966 4.663-3.654.14.075.292.128.462.128h2v4c0 .435.281.82.694.952.414.133.866-.017 1.119-.371l4.187-5.86 4.187 5.86c.191.268.497.419.813.419.102 0 .205-.016.306-.048.413-.132.694-.517.694-.952v-4h2c.17 0 .322-.053.462-.128 1.099 1.687 2.735 3 4.663 3.654-.083.491-.125.984-.125 1.474 0 2.222.828 4.356 2.303 6-1.475 1.644-2.303 3.778-2.303 6 0 .49.042.982.125 1.473zm-15.324-25.005c.666.33 1.406.532 2.199.532s1.533-.202 2.199-.532l3.936 3.28c.269.224.561.413.865.579v.673h-2c-.553 0-1 .448-1 1v1.879l-3.187-4.46c-.375-.526-1.252-.526-1.627 0l-3.186 4.46v-1.879c0-.552-.447-1-1-1h-2v-.673c.304-.167.597-.356.866-.58zm9.613-10.678c.611-.51 1.386-.79 2.181-.79 1.878 0 3.405 1.528 3.405 3.405v7.189c0 1.878-1.527 3.406-3.405 3.406-.795 0-1.569-.28-2.18-.789l-3.609-3.007c.734-.871 1.194-1.979 1.194-3.204s-.46-2.333-1.194-3.204zm-4.414 6.21c0 1.654-1.346 3-3 3s-3-1.346-3-3 1.346-3 3-3 3 1.346 3 3zm-16-3.595c0-1.877 1.527-3.405 3.405-3.405.795 0 1.569.28 2.18.789l3.609 3.007c-.734.871-1.194 1.979-1.194 3.204s.46 2.333 1.194 3.204l-3.608 3.007c-.611.509-1.386.789-2.181.789-1.878 0-3.405-1.528-3.405-3.405zm-16 19.595c0-3.275 2.321-6.151 5.521-6.84.27-.058.504-.226.646-.462.143-.237.18-.522.104-.789-.179-.634-.271-1.276-.271-1.909 0-3.86 3.141-7 7-7 .331 0 .665.032 1 .082v4.513c0 2.947 2.371 5.346 5.305 5.4-.923 1.929-2.701 3.388-4.826 3.845-.27.058-.504.226-.646.462-.143.237-.18.522-.104.789.179.634.271 1.276.271 1.909 0 2.004-.868 3.917-2.382 5.25-.215.19-.339.463-.339.75s.124.561.339.75c1.514 1.333 2.382 3.246 2.382 5.25 0 .323-.025.648-.072.973-4.703-.132-9.113-1.923-12.575-5.094.299-.408.642-.788 1.029-1.128.215-.19.339-.463.339-.75s-.124-.561-.339-.75c-1.514-1.334-2.382-3.247-2.382-5.251zm16.16 29.48c-.059-.27-.226-.504-.462-.646-.237-.143-.524-.18-.788-.105-.635.18-1.277.271-1.91.271-3.859 0-7-3.14-7-7 0-.633.092-1.275.271-1.909.075-.266.038-.551-.104-.789-.143-.237-.377-.404-.646-.462-3.2-.689-5.521-3.565-5.521-6.84 0-.789.139-1.562.395-2.293 3.812 3.327 8.606 5.183 13.7 5.274.114.085.243.149.385.179 2.68.577 4.783 2.681 5.36 5.359.059.27.226.504.462.646.238.143.525.181.788.105 2.645-.748 5.406.119 7.159 2.11.19.216.464.339.751.339s.561-.124.751-.339c.599-.68 1.321-1.217 2.11-1.615-.7 4.659-4.12 8.518-8.804 9.689l-5.172 1.293c-.838-.897-1.454-2.01-1.725-3.267zm36.319-10.64c-.27.058-.504.226-.646.462-.143.237-.18.522-.104.789.179.634.271 1.276.271 1.909 0 3.86-3.141 7-7 7-.633 0-1.275-.091-1.91-.271-.262-.075-.551-.038-.788.105-.236.142-.403.376-.462.646-.689 3.199-3.566 5.52-6.84 5.52-2.004 0-3.917-.868-5.249-2.381-.381-.432-1.121-.432-1.502 0-1.332 1.513-3.245 2.381-5.249 2.381-1.072 0-2.09-.269-3.014-.716l3.555-.889c5.804-1.451 9.955-6.429 10.413-12.311.962-.146 1.967-.093 2.956.187.264.076.551.038.788-.105.236-.142.403-.376.462-.646.577-2.679 2.681-4.782 5.36-5.359.142-.031.271-.094.385-.179 5.094-.091 9.888-1.948 13.7-5.274.256.73.395 1.503.395 2.292 0 3.275-2.321 6.151-5.521 6.84z"/><path d="m10 28c1.654 0 3-1.346 3-3s-1.346-3-3-3-3 1.346-3 3 1.346 3 3 3zm0-4c.552 0 1 .449 1 1s-.448 1-1 1-1-.449-1-1 .448-1 1-1z"/><path d="m54 28c1.654 0 3-1.346 3-3s-1.346-3-3-3-3 1.346-3 3 1.346 3 3 3zm0-4c.552 0 1 .449 1 1s-.448 1-1 1-1-.449-1-1 .448-1 1-1z"/><path d="m48 45c-1.654 0-3 1.346-3 3s1.346 3 3 3 3-1.346 3-3-1.346-3-3-3zm0 4c-.552 0-1-.449-1-1s.448-1 1-1 1 .449 1 1-.448 1-1 1z"/><path d="m16 45c-1.654 0-3 1.346-3 3s1.346 3 3 3 3-1.346 3-3-1.346-3-3-3zm0 4c-.552 0-1-.449-1-1s.448-1 1-1 1 .449 1 1-.448 1-1 1z"/></g></svg>